<svg width="34" height="34" viewBox="0 0 34 34" fill="none" xmlns="http://www.w3.org/2000/svg">
<path d="M16.6533 33.3333C14.3478 33.3333 12.1811 32.8972 10.1533 32.025C8.12556 31.1528 6.36334 29.965 4.86667 28.4617C3.37 26.9583 2.18445 25.195 1.31 23.1717C0.435558 21.1483 -0.001109 18.9844 2.11506e-06 16.68C2.11506e-06 14.3511 0.436113 12.1733 1.30834 10.1467C2.18056 8.12 3.36834 6.35333 4.87167 4.84667C6.375 3.34 8.13834 2.15556 10.1617 1.29333C12.185 0.431111 14.3494 0 16.655 0C18.9883 0 21.1683 0.431111 23.195 1.29333C25.2217 2.15556 26.9872 3.33833 28.4917 4.84167C29.9961 6.345 31.1789 8.11056 32.04 10.1383C32.9011 12.1661 33.3322 14.3461 33.3333 16.6783C33.3333 18.985 32.9022 21.1494 32.04 23.1717C31.1778 25.1939 29.9933 26.9572 28.4867 28.4617C26.98 29.9661 25.2133 31.1539 23.1867 32.025C21.16 32.8961 18.9822 33.3322 16.6533 33.3333ZM15.625 27.0617C15.9028 27.3394 16.2222 27.4783 16.5833 27.4783C16.9444 27.4783 17.2639 27.3394 17.5417 27.0617L26.9783 17.625C27.2561 17.3472 27.395 17.0139 27.395 16.625C27.395 16.2361 27.2561 15.9028 26.9783 15.625L17.5417 6.19C17.2639 5.91222 16.9444 5.77333 16.5833 5.77333C16.2222 5.77333 15.9028 5.91222 15.625 6.19L6.19 15.625C5.91222 15.9028 5.77334 16.2361 5.77334 16.625C5.77334 17.0139 5.91222 17.3472 6.19 17.625L15.625 27.0617ZM10.7917 20.7917V14.965C10.7917 14.7172 10.8683 14.5156 11.0217 14.36C11.1739 14.2033 11.375 14.125 11.625 14.125H20.5917L17.945 11.4583L19.125 10.2783L23.805 14.9583L19.125 19.6383L17.945 18.4583L20.5933 15.7917H12.4583V20.7917H10.7917ZM16.6667 31.6667C20.8611 31.6667 24.41 30.215 27.3133 27.3117C30.2167 24.4083 31.6678 20.86 31.6667 16.6667C31.6656 12.4733 30.2139 8.925 27.3117 6.02167C24.4094 3.11833 20.8611 1.66667 16.6667 1.66667C12.4722 1.66667 8.92389 3.11833 6.02167 6.02167C3.11945 8.925 1.66778 12.4733 1.66667 16.6667C1.66556 20.86 3.11722 24.4089 6.02167 27.3133C8.92611 30.2178 12.4744 31.6689 16.6667 31.6667Z" fill="black"/>
</svg>
