<svg width="32" height="22" viewBox="0 0 32 22" fill="none" xmlns="http://www.w3.org/2000/svg">
<path d="M4.25304 0C1.90891 0 0 1.79533 0 4V17.3333C0 19.538 1.90891 21.3333 4.25304 21.3333H26.9359C29.2801 21.3333 31.189 19.538 31.189 17.3333V4C31.189 1.79533 29.2801 0 26.9359 0H4.25304ZM4.25304 1.33333H26.9359C28.5188 1.33333 29.7713 2.51133 29.7713 4V17.3333C29.7713 18.822 28.5188 20 26.9359 20H4.25304C3.87991 20.0027 3.50994 19.9355 3.16466 19.8024C2.81938 19.6694 2.50568 19.473 2.24183 19.2249C1.97798 18.9767 1.76923 18.6817 1.62774 18.357C1.48626 18.0322 1.41485 17.6843 1.41768 17.3333V4C1.41768 2.51133 2.6702 1.33333 4.25304 1.33333Z" fill="black"/>
<path d="M4.72925 6.00027C4.63272 5.99769 4.53666 6.01369 4.44695 6.04728C4.35724 6.08087 4.27577 6.13134 4.20754 6.1956C4.07465 6.32062 4 6.49016 4 6.66694C4 6.84371 4.07465 7.01325 4.20754 7.13827L12.7136 15.1383C14.1589 16.4983 16.5236 16.4983 17.969 15.1383L26.475 7.13827C26.6079 7.01325 26.6826 6.84371 26.6826 6.66694C26.6826 6.49016 26.6079 6.32062 26.475 6.1956C26.3421 6.07062 26.1619 6.00041 25.9739 6.00041C25.7859 6.00041 25.6057 6.07062 25.4727 6.1956L16.9667 14.1956C16.7539 14.3975 16.5008 14.5578 16.2218 14.6672C15.9428 14.7766 15.6435 14.8329 15.3413 14.8329C15.039 14.8329 14.7398 14.7766 14.4608 14.6672C14.1818 14.5578 13.9287 14.3975 13.7159 14.1956L5.20984 6.1956C5.08201 6.0752 4.91008 6.00531 4.72925 6.00027Z" fill="black"/>
</svg>
