<svg width="34" height="34" viewBox="0 0 34 34" fill="none" xmlns="http://www.w3.org/2000/svg">
<path d="M28.25 4.84477C25.935 2.53077 22.9857 0.955206 19.7753 0.317319C16.5648 -0.320568 13.2373 0.00787079 10.2134 1.2611C7.18964 2.51433 4.60535 4.63607 2.78737 7.35802C0.969398 10.08 -0.000612773 13.2799 2.9042e-07 16.5531C-2.65546e-07 20.9432 1.74339 25.1536 4.84688 28.2587C7.95036 31.3637 12.1599 33.1092 16.55 33.1114C18.7224 33.1115 20.8739 32.6869 22.8833 31.8614C24.8859 31.0156 26.7077 29.7935 28.25 28.2614C29.7877 26.724 31.0075 24.8987 31.8398 22.8897C32.672 20.8808 33.1003 18.7276 33.1003 16.5531C33.1003 14.3786 32.672 12.2254 31.8398 10.2165C31.0075 8.20756 29.7877 6.38224 28.25 4.84477ZM27.0833 27.0781C24.7002 29.4717 21.573 30.9824 18.2167 31.3614V20.4281H21.35C21.792 20.4281 22.216 20.2525 22.5285 19.9399C22.8411 19.6274 23.0167 19.2035 23.0167 18.7614C23.0167 18.3194 22.8411 17.8955 22.5285 17.5829C22.216 17.2704 21.792 17.0948 21.35 17.0948H18.2167V12.5281C18.2167 12.0861 18.3923 11.6622 18.7048 11.3496C19.0174 11.037 19.4413 10.8614 19.8833 10.8614H21.8833C22.3254 10.8614 22.7493 10.6858 23.0618 10.3733C23.3744 10.0607 23.55 9.6368 23.55 9.19477C23.55 8.75275 23.3744 8.32882 23.0618 8.01626C22.7493 7.7037 22.3254 7.52811 21.8833 7.52811H19.05C17.9449 7.52811 16.8851 7.96709 16.1037 8.7485C15.3223 9.5299 14.8833 10.5897 14.8833 11.6948V17.0948H11.7667C11.3246 17.0948 10.9007 17.2704 10.5882 17.5829C10.2756 17.8955 10.1 18.3194 10.1 18.7614C10.1 19.2035 10.2756 19.6274 10.5882 19.9399C10.9007 20.2525 11.3246 20.4281 11.7667 20.4281H14.8833V31.3614C11.7882 31.0083 8.88213 29.6917 6.57575 27.5976C4.26936 25.5034 2.67919 22.7376 2.02983 19.6908C1.38048 16.6439 1.70476 13.4701 2.95688 10.6175C4.20901 7.76499 6.32568 5.37791 9.00792 3.79347C11.6902 2.20904 14.8024 1.50733 17.905 1.78747C21.0077 2.06761 23.9439 3.31543 26.299 5.35468C28.654 7.39393 30.3089 10.1215 31.0298 13.1522C31.7507 16.1829 31.5013 19.3635 30.3167 22.2448C29.5607 24.0494 28.4628 25.6906 27.0833 27.0781Z" fill="black"/>
</svg>
