<svg width="40" height="40" viewBox="0 0 40 40" fill="none" xmlns="http://www.w3.org/2000/svg">
<path d="M36.6666 22.3967C36.6666 28.68 36.6666 31.8233 34.7133 33.7767C32.76 35.73 29.6183 35.73 23.3333 35.73H16.6666C10.3816 35.73 7.23831 35.73 5.28665 33.7767C3.33498 31.8233 3.33331 28.6817 3.33331 22.3967C3.33331 16.1117 3.33331 12.9667 5.28665 11.015C7.23998 9.06333 10.3816 9.06333 16.6666 9.06333H23.3333C29.6183 9.06333 32.7616 9.06333 34.7133 11.015C35.82 12.1217 36.3 13.6083 36.5066 15.8333" stroke="black" stroke-width="1.5" stroke-linecap="round"/>
<path d="M6.64667 10C6.83333 8.44833 7.225 7.37667 8.04167 6.56167C9.60833 5 12.1317 5 17.1783 5H22.53C27.5767 5 30.0983 5 31.6667 6.56167C32.4833 7.37667 32.875 8.44833 33.0617 10" stroke="black" stroke-width="1.5"/>
<path d="M29.1666 19.0633C30.5473 19.0633 31.6666 17.944 31.6666 16.5633C31.6666 15.1826 30.5473 14.0633 29.1666 14.0633C27.7859 14.0633 26.6666 15.1826 26.6666 16.5633C26.6666 17.944 27.7859 19.0633 29.1666 19.0633Z" stroke="black" stroke-width="1.5"/>
<path d="M3.33331 23.23L6.25331 20.675C6.98521 20.0351 7.93289 19.6972 8.90452 19.7297C9.87614 19.7622 10.7991 20.1627 11.4866 20.85L18.6366 28C19.1917 28.5545 19.9245 28.8954 20.7062 28.9628C21.4879 29.0302 22.2682 28.8197 22.91 28.3683L23.4083 28.0183C24.3345 27.3682 25.4538 27.0515 26.5833 27.1199C27.7128 27.1883 28.7857 27.6378 29.6266 28.395L35 33.2283" stroke="black" stroke-width="1.5" stroke-linecap="round"/>
</svg>
