<svg width="20" height="22" viewBox="0 0 20 22" fill="none" xmlns="http://www.w3.org/2000/svg">
<path d="M0.75 8.98372L1.497 8.91972C1.47978 8.72763 1.38924 8.54956 1.24416 8.42249C1.09909 8.29542 0.910639 8.22912 0.717959 8.23736C0.525279 8.24559 0.343177 8.32774 0.209478 8.46673C0.0757788 8.60572 0.000758622 8.79087 0 8.98372H0.75ZM17.986 10.8067L17.28 14.8867L18.759 15.1427L19.464 11.0627L17.986 10.8067ZM10.995 19.9997H6.346V21.4997H10.995V19.9997ZM5.435 19.1627L4.623 9.76972L3.128 9.89872L3.941 19.2917L5.435 19.1627ZM17.28 14.8867C16.773 17.8167 14.131 19.9997 10.995 19.9997V21.4997C14.821 21.4997 18.121 18.8307 18.759 15.1427L17.28 14.8867ZM11.005 3.84972L10.342 7.89472L11.822 8.13672L12.485 4.09272L11.005 3.84972ZM4.938 8.99572L6.377 7.75572L5.397 6.61972L3.96 7.85972L4.938 8.99572ZM8.994 3.72172L9.47 1.88772L8.018 1.51172L7.542 3.34472L8.994 3.72172ZM10.188 1.52772L10.333 1.57472L10.792 0.146721L10.647 0.099721L10.188 1.52772ZM8.273 5.56572C8.58519 4.98163 8.8272 4.36266 8.994 3.72172L7.542 3.34472C7.40421 3.87101 7.20553 4.37944 6.95 4.85972L8.273 5.56572ZM10.333 1.57472C10.4755 1.61838 10.6047 1.69711 10.7088 1.80368C10.813 1.91026 10.8887 2.04128 10.929 2.18472L12.381 1.80872C12.2781 1.42002 12.0784 1.06373 11.8005 0.773095C11.5227 0.482462 11.1757 0.266967 10.792 0.146721L10.333 1.57472ZM9.47 1.88772C9.49024 1.81584 9.52572 1.74915 9.57404 1.69221C9.62235 1.63526 9.68237 1.58939 9.75 1.55772L9.099 0.206721C8.567 0.462721 8.167 0.936721 8.018 1.51172L9.47 1.88772ZM9.75 1.55772C9.88697 1.49275 10.0435 1.48203 10.188 1.52772L10.647 0.099721C10.1363 -0.063548 9.58242 -0.0252654 9.099 0.206721L9.75 1.55772ZM11.904 9.73372H17.084V8.23372H11.904V9.73372ZM2.469 20.1557L1.497 8.91972L0.00300002 9.04872L0.973 20.2847L2.469 20.1557ZM1.5 20.2627V8.98372H0V20.2627H1.5ZM0.973 20.2847C0.969949 20.2484 0.97549 20.2118 0.987334 20.1773C0.999178 20.1428 1.01807 20.1112 1.0428 20.0844C1.06753 20.0576 1.09757 20.0362 1.131 20.0216C1.16443 20.0071 1.20053 19.9996 1.237 19.9997V21.4997C1.963 21.4997 2.531 20.8777 2.469 20.1557L0.973 20.2847ZM12.485 4.09272C12.6107 3.33251 12.5753 2.55436 12.381 1.80872L10.929 2.18572C11.0708 2.72891 11.0967 3.29587 11.005 3.84972L12.485 4.09272ZM6.346 19.9997C6.11701 19.9993 5.89648 19.9132 5.72785 19.7582C5.55923 19.6033 5.45475 19.3909 5.435 19.1627L3.941 19.2917C3.99303 19.8939 4.26888 20.4547 4.71411 20.8634C5.15933 21.2722 5.74159 21.4992 6.346 21.4997V19.9997ZM6.377 7.75572C7.057 7.16972 7.789 6.47272 8.274 5.56572L6.95 4.85972C6.604 5.50872 6.053 6.05572 5.397 6.61972L6.377 7.75572ZM19.464 11.0627C19.5242 10.7157 19.5078 10.3597 19.416 10.0197C19.3241 9.6797 19.1591 9.36388 18.9323 9.09437C18.7056 8.82487 18.4227 8.60819 18.1034 8.45952C17.7841 8.31085 17.4362 8.23378 17.084 8.23372V9.73372C17.651 9.73372 18.084 10.2457 17.986 10.8067L19.464 11.0627ZM1.237 19.9997C1.383 19.9997 1.5 20.1177 1.5 20.2627H0C0 20.9447 0.553 21.4997 1.237 21.4997V19.9997ZM10.342 7.89472C10.3047 8.1213 10.3172 8.35328 10.3785 8.57456C10.4399 8.79584 10.5486 9.00113 10.6972 9.17619C10.8458 9.35124 11.0307 9.49187 11.2391 9.58832C11.4475 9.68476 11.6744 9.73372 11.904 9.73372V8.23372C11.8918 8.23378 11.8797 8.23214 11.8687 8.227C11.8576 8.22186 11.8478 8.21434 11.84 8.20498C11.8321 8.19563 11.8265 8.18466 11.8234 8.17286C11.8203 8.16106 11.8198 8.14872 11.822 8.13672L10.342 7.89472ZM4.623 9.76972C4.6108 9.62492 4.63208 9.47929 4.687 9.34475C4.74193 9.21022 4.82794 9.09061 4.938 8.99572L3.958 7.85872C3.66814 8.10886 3.44177 8.4242 3.29748 8.77883C3.1532 9.13346 3.09511 9.51727 3.128 9.89872L4.623 9.76972Z" fill="#CC3636"/>
</svg>
