<svg width="30" height="35" viewBox="0 0 30 35" fill="none" xmlns="http://www.w3.org/2000/svg">
<path d="M26.9802 14.7564H24.4429V10.194C24.4429 5.77422 20.1294 2.1386 14.8856 2.1386C9.6418 2.1386 5.32834 5.77422 5.32834 10.194V14.7564H2.79102V10.194C2.79102 4.56235 8.20398 0 14.8856 0C21.5672 0 26.9802 4.56235 26.9802 10.194V14.7564Z" fill="#3D3D3D"/>
<path d="M25.7116 34.1463H4.05972C1.86071 34.1463 0 32.578 0 30.7246V17.0375C0 15.1841 1.86071 13.6158 4.05972 13.6158H25.7116C27.9106 13.6158 29.7713 15.1841 29.7713 17.0375V30.7246C29.7713 32.6493 27.9106 34.1463 25.7116 34.1463ZM4.05972 15.8969C3.29852 15.8969 2.70648 16.3959 2.70648 17.0375V30.7246C2.70648 31.3661 3.29852 31.8652 4.05972 31.8652H25.7116C26.4728 31.8652 27.0648 31.3661 27.0648 30.7246V17.0375C27.0648 16.3959 26.4728 15.8969 25.7116 15.8969H4.05972Z" fill="#3D3D3D"/>
<path d="M17.592 20.4593C17.592 21.7425 16.408 22.7405 14.8856 22.7405C13.3632 22.7405 12.1791 21.7425 12.1791 20.4593C12.1791 19.1761 13.3632 18.1781 14.8856 18.1781C16.408 18.1781 17.592 19.2474 17.592 20.4593Z" fill="#3D3D3D"/>
<path d="M15.5623 20.4593H14.2091L12.8558 27.3028H16.9156L15.5623 20.4593Z" fill="#3D3D3D"/>
</svg>
