<svg width="24" height="28" viewBox="0 0 24 28" fill="none" xmlns="http://www.w3.org/2000/svg">
<path d="M14.7933 14.5528C16.916 13.1399 18.2876 10.3495 18.2876 7.77093C18.2876 4.0974 15.5118 0 11.7563 0C8.00081 0 5.22502 4.0974 5.22502 7.77093C5.22502 10.3495 6.59659 13.1399 8.71925 14.5528C3.69017 16.0011 0 20.9815 0 26.845C0 27.2336 0.293907 27.5515 0.653127 27.5515H22.8595C23.2187 27.5515 23.5126 27.2336 23.5126 26.845C23.5126 20.9815 19.8224 16.0011 14.7933 14.5528ZM6.53127 7.77093C6.53127 4.13272 9.30707 1.4129 11.7563 1.4129C14.2055 1.4129 16.9813 4.13272 16.9813 7.77093C16.9813 11.4091 14.2055 14.129 11.7563 14.129C9.30707 14.129 6.53127 11.4091 6.53127 7.77093ZM1.33891 26.1386C1.66548 20.2397 6.23737 15.5419 11.7563 15.5419C17.2752 15.5419 21.8471 20.2397 22.1737 26.1386H1.33891Z" fill="black"/>
</svg>
