<svg width="25" height="32" viewBox="0 0 25 32" fill="none" xmlns="http://www.w3.org/2000/svg">
<path d="M6.47986 0.169452L5.04586 0.601452C3.76902 0.98651 2.62874 1.7283 1.75924 2.73953C0.889746 3.75075 0.327215 4.98932 0.137861 6.30945C-0.456139 10.4455 0.871861 15.2815 4.07386 20.8275C7.26786 26.3595 10.7839 29.9235 14.6539 31.4835C15.8973 31.9846 17.2585 32.1181 18.5757 31.8682C19.8928 31.6182 21.1105 30.9953 22.0839 30.0735L23.1679 29.0455C23.8718 28.3793 24.3098 27.4802 24.4007 26.5153C24.4916 25.5504 24.229 24.5853 23.6619 23.7995L20.9499 20.0395C20.5832 19.5318 20.0669 19.1517 19.4733 18.9523C18.8797 18.7529 18.2386 18.7442 17.6399 18.9275L13.5379 20.1815L13.4319 20.2015C12.9799 20.2675 11.9359 19.2895 10.6359 17.0375C9.27586 14.6815 8.99586 13.3035 9.36986 12.9475L11.4559 11.0015C12.2179 10.2899 12.7385 9.35785 12.9447 8.33582C13.1509 7.31378 13.0324 6.25284 12.6059 5.30145L11.2819 2.35945C10.8837 1.47414 10.1773 0.763808 9.29412 0.360877C8.41098 -0.0420545 7.40945 -0.110091 6.47986 0.169452ZM9.46186 3.17945L10.7819 6.12145C11.038 6.69209 11.1094 7.32852 10.9861 7.94173C10.8627 8.55495 10.5508 9.11426 10.0939 9.54145L8.00186 11.4895C6.66186 12.7575 7.10586 14.9215 8.90586 18.0375C10.5979 20.9695 12.1419 22.4175 13.8019 22.1655L14.0499 22.1135L18.2259 20.8395C18.4255 20.7781 18.6393 20.7808 18.8373 20.8472C19.0353 20.9136 19.2075 21.0402 19.3299 21.2095L22.0419 24.9695C22.3258 25.3624 22.4574 25.845 22.4122 26.3277C22.3669 26.8104 22.1479 27.2602 21.7959 27.5935L20.7099 28.6215C20.0146 29.2795 19.1449 29.7241 18.2044 29.9024C17.2638 30.0808 16.2918 29.9853 15.4039 29.6275C12.0079 28.2595 8.79786 25.0055 5.80786 19.8275C2.80986 14.6375 1.59586 10.2235 2.11786 6.59345C2.25299 5.65031 2.65477 4.76541 3.2759 4.04294C3.89703 3.32047 4.71166 2.79051 5.62386 2.51545L7.05786 2.08345C7.52278 1.94375 8.02263 1.97791 8.46422 2.17957C8.90581 2.38123 9.25897 2.73661 9.45786 3.17945" fill="black"/>
</svg>
